<svg fill-opacity="0.8" fill="#a1d99b" stroke="#31a354" stroke-width="3"  xmlns="http://www.w3.org/2000/svg" version="1.1" width="1388.4" height="2417.04" viewbox="0 0 1388.4 2417.04">
 <g>
  <path d="M1118.5616674805 1956.1344221797 L1156.6704931641 1983.2439695172 L1241.1278906251 2004.3295108914 L1347.2146215821 1941.0737737824 L1326.6152563477 1858.7448974646 L1313.2256689454 1795.4952906065 L1264.8171606446 1742.2873692737 L1257.6073828126 1717.1899486375 L1267.9070654298 1677.0349499865 L1295.7162084962 1646.9194074874 L1321.4654150391 1610.7815561709 L1318.375510254 1567.6180442488 L1300.8660498048 1519.4369908287 L1322.4953833009 1477.2798431923 L1337.9449072266 1405.0132156714 L1352.3644628907 1339.7755159368 L1388.4133520509 1265.5083786506 L1377.083701172 1216.3335279613 L1288.5064306641 1198.269705031 L1283.3565893555 1178.1990478265 L1225.6783666993 1153.111107085 L1178.2998266602 1122.002648305 L1159.7603979493 1118.9921868352 L1164.9102392579 1084.8740496343 L1100.0222387696 1025.670906171 L1049.5537939454 1030.6880301945 L999.08534912117 1020.6537991009 L942.43709472664 1017.6435429967 L918.74782470711 1003.5957618865 L920.80776123055 934.3622120322 L924.92763427742 927.33869910268 L864.15950683602 925.33198723319 L815.75099853524 911.28508019051 L772.49233154305 909.27839004863 L743.65322021492 905.26501791408 L724.08382324227 899.24498008529 L730.26363281258 858.10870937362 L677.73525146492 843.05913958801 L638.59645751961 839.04594680226 L585.03810791024 827.00643369211 L550.0191870118 809.95062434314 L553.10909179695 795.90481123287 L540.74947265633 791.89174625111 L503.67061523445 769.82008334991 L485.13118652352 767.813584864 L484.1012182618 749.75522093655 L469.68166259774 737.71643411237 L462.4718847657 715.64557943378 L452.17220214852 695.58145195151 L445.9923925782 684.54629790691 L467.6217260743 618.3371041312 L487.19112304695 570.18682741659 L512.94032958992 515.0165666017 L544.8693457032 459.84836957757 L554.13906005867 425.74542605837 L556.19899658211 382.61636347045 L569.58858398445 335.476740285 L608.72737792977 283.32402342213 L633.44661621102 253.23675892184 L646.83620361336 222.14723266194 L650.95607666024 211.11562341 L666.40560058602 181.02983747542 L688.03493408211 159.97015408971 L716.87404541024 110.83206793518 L763.22261718758 75.734442593244 L806.48128417977 44.648675974514 L826.05068115242 56.68179776174 L885.78884033211 56.68179776174 L937.28725341805 56.68179776174 L997.02541259774 56.68179776174 L1013.5049047852 60.69286030808 L1025.349539795 71.723338895566 L1034.6192541505 81.249728093354 L1069.6381750489 82.25250950386 L1100.0222387696 79.745557263266 L1111.3518896485 73.728889372831 L1110.3219213868 64.202549038527 L1109.2919531251 46.654189412436 L1107.7470007325 34.119775447351 L1107.7470007325 0.52807471530514 L1079.9378576661 0.52807471530514 L955.82668212899 0.026711881133679 L945.01201538094 33.618401118503 L916.17290405281 45.150054076771 L827.08064941414 46.654189412436 L815.23601440438 34.119775447351 L803.90636352547 24.593692531965 L791.54674438485 26.599178525856 L750.86299804695 60.69286030808 L711.72420410164 83.255291599983 L688.03493408211 109.82926698455 L647.35118774422 175.51417691413 L630.87169555672 201.08695961866 L607.69740966805 246.71793278716 L561.86382202156 304.38547492608 L553.62407592781 331.46492718538 L516.03023437508 330.4619756197 L499.55074218758 332.96935581578 L486.16115478524 328.45607453964 L481.01131347664 324.94575423061 L466.59175781258 363.05825144137 L455.26210693367 377.60143817775 L426.93797973641 379.60740624482 L417.15328125008 383.6193505789 L415.6083288575 376.59845516919 L391.91905883797 374.59249120226 L373.89461425789 375.59547284403 L370.80470947274 382.61636347045 L340.93562988289 396.15674708611 L318.79131225594 414.21078559137 L310.55156616219 421.73336695529 L315.18642333992 436.27713319347 L312.09651855477 445.80588547515 L304.37175659188 456.83925457615 L288.40724853524 460.34988934187 L282.22743896492 470.88184381465 L273.98769287117 476.39861190686 L262.14305786141 492.94904006194 L241.02870849617 556.14329257008 L237.93880371102 570.6883847042 L172.02083496102 716.648792955 L124.64229492195 759.78761812948 L103.01296142586 852.08886311196 L122.58235839852 905.26501791408 L83.443564453205 973.4938215048 L66.964072265705 1015.636708985 L42.244833984455 1040.722329097 L146.27162841805 1113.9747645999 L160.69118408211 1162.1427170071 L128.76216796883 1185.2237470524 L142.15175537117 1261.4940442545 L132.8820410157 1384.9397734066 L100.95302490242 1461.2202903556 L54.60445312508 1519.4369908287 L64.904135742267 1580.6673467326 L27.825278320392 1616.8044707937 L32.975119628986 1710.1627461793 L21.64546875008 1776.4205356783 L0.016135253986249 1811.558430264 L101.98299316414 1852.7210105406 L137.00191406258 1867.7807731699 L174.08077148445 1873.8047205171 L204.97981933602 1894.8887265298 L227.63912109383 1918.9850957986 L235.87886718758 1980.2317734535 L272.95772460945 2003.3254307896 L315.18642333992 2049.5138090292 L319.3062963868 2108.7574993902 L340.93562988289 2113.7782582407 L369.77474121102 2141.8948170109 L424.36305908211 2178.045449084 L488.22109130867 2181.0580408882 L496.46083740242 2168.0035198782 L520.15010742195 2186.0790406043 L545.89931396492 2189.0916484593 L581.94820312508 2222.230732043 L576.79836181649 2285.4982764455 L653.01601318367 2294.536713539 L661.25575927742 2333.7038993388 L748.80306152352 2324.6652278617 L803.39137939461 2325.6695220221 L854.88979248055 2363.8331947547 L911.53804687508 2384.9240589091 L969.21626953133 2417.0630842907 L1034.1042700196 2410.0326141264 L1024.8345556641 2214.1969479529 L968.18630126961 2178.045449084 L1055.7336035157 2086.6663592693 L1083.5427465821 1939.0656987314 L1118.5616674805 1956.1344221797"/>
 </g>
</svg>
